<mxfile host="Electron" agent="Mozilla/5.0 (Windows NT 10.0; Win64; x64) AppleWebKit/537.36 (KHTML, like Gecko) draw.io/28.1.2 Chrome/138.0.7204.243 Electron/37.4.0 Safari/537.36" version="28.1.2">
  <diagram name="ページ1" id="JEHONIYP_Q7C-oA9vNsH">
    <mxGraphModel dx="786" dy="516" grid="1" gridSize="10" guides="1" tooltips="1" connect="1" arrows="1" fold="1" page="1" pageScale="1" pageWidth="1600" pageHeight="1200" math="0" shadow="0">
      <root>
        <mxCell id="0" />
        <mxCell id="1" parent="0" />
        <mxCell id="JjNx8LgjltpNHp1LnsKQ-1" value="書籍" style="rounded=0;whiteSpace=wrap;html=1;fillColor=#d5e8d4;strokeColor=#82b366;" vertex="1" parent="1">
          <mxGeometry x="740" y="540" width="90" height="40" as="geometry" />
        </mxCell>
        <mxCell id="JjNx8LgjltpNHp1LnsKQ-2" value="書籍レビュー" style="rounded=0;whiteSpace=wrap;html=1;fillColor=#d5e8d4;strokeColor=#82b366;" vertex="1" parent="1">
          <mxGeometry x="700" y="440" width="90" height="40" as="geometry" />
        </mxCell>
        <mxCell id="JjNx8LgjltpNHp1LnsKQ-4" value="" style="endArrow=diamondThin;html=1;rounded=0;entryX=0.5;entryY=1;entryDx=0;entryDy=0;exitX=0.5;exitY=0;exitDx=0;exitDy=0;endFill=0;startSize=10;endSize=10;" edge="1" parent="1" source="JjNx8LgjltpNHp1LnsKQ-1" target="JjNx8LgjltpNHp1LnsKQ-2">
          <mxGeometry width="50" height="50" relative="1" as="geometry">
            <mxPoint x="770" y="580" as="sourcePoint" />
            <mxPoint x="820" y="530" as="targetPoint" />
          </mxGeometry>
        </mxCell>
        <mxCell id="JjNx8LgjltpNHp1LnsKQ-5" value="発注者&lt;br&gt;クレジットカード" style="rounded=0;whiteSpace=wrap;html=1;fillColor=#d5e8d4;strokeColor=#82b366;" vertex="1" parent="1">
          <mxGeometry x="990" y="540" width="100" height="50" as="geometry" />
        </mxCell>
        <mxCell id="JjNx8LgjltpNHp1LnsKQ-6" value="支払い方式" style="rounded=0;whiteSpace=wrap;html=1;fillColor=#d5e8d4;strokeColor=#82b366;" vertex="1" parent="1">
          <mxGeometry x="950" y="440" width="90" height="40" as="geometry" />
        </mxCell>
        <mxCell id="JjNx8LgjltpNHp1LnsKQ-7" value="" style="endArrow=block;html=1;rounded=0;entryX=0.75;entryY=1;entryDx=0;entryDy=0;exitX=0.5;exitY=0;exitDx=0;exitDy=0;endFill=0;startSize=10;endSize=10;" edge="1" parent="1" source="JjNx8LgjltpNHp1LnsKQ-5" target="JjNx8LgjltpNHp1LnsKQ-6">
          <mxGeometry width="50" height="50" relative="1" as="geometry">
            <mxPoint x="1020" y="580" as="sourcePoint" />
            <mxPoint x="1070" y="530" as="targetPoint" />
          </mxGeometry>
        </mxCell>
        <mxCell id="JjNx8LgjltpNHp1LnsKQ-8" value="発注者" style="rounded=0;whiteSpace=wrap;html=1;fillColor=#d5e8d4;strokeColor=#82b366;" vertex="1" parent="1">
          <mxGeometry x="870" y="540" width="90" height="40" as="geometry" />
        </mxCell>
        <mxCell id="JjNx8LgjltpNHp1LnsKQ-9" value="" style="endArrow=block;html=1;rounded=0;entryX=0.25;entryY=1;entryDx=0;entryDy=0;exitX=0.5;exitY=0;exitDx=0;exitDy=0;endFill=0;startSize=10;endSize=10;" edge="1" parent="1" source="JjNx8LgjltpNHp1LnsKQ-8" target="JjNx8LgjltpNHp1LnsKQ-6">
          <mxGeometry width="50" height="50" relative="1" as="geometry">
            <mxPoint x="1085" y="560" as="sourcePoint" />
            <mxPoint x="1040" y="500" as="targetPoint" />
          </mxGeometry>
        </mxCell>
      </root>
    </mxGraphModel>
  </diagram>
</mxfile>
